<svg xmlns="http://www.w3.org/2000/svg" xmlns:xlink="http://www.w3.org/1999/xlink" width="11" height="16" viewBox="0 0 11 16"><defs><path id="ezjwa" d="M784 1841.33a.49.49 0 0 0-.18-.37l-.95-.8a.71.71 0 0 0-.43-.16.71.71 0 0 0-.44.16l-8.82 7.47a.52.52 0 0 0-.19.37c0 .13.08.27.19.37l8.82 7.47c.11.1.28.16.44.16.15 0 .32-.06.43-.16l.95-.8c.11-.1.19-.24.19-.37a.52.52 0 0 0-.2-.37l-7.43-6.3 7.44-6.3c.11-.1.19-.24.19-.37z"/></defs><g><g transform="translate(-773 -1840)"><use xlink:href="#ezjwa"/><use fill="#454c55" xlink:href="#ezjwa"/></g></g></svg>