<svg xmlns="http://www.w3.org/2000/svg" xmlns:xlink="http://www.w3.org/1999/xlink" width="11" height="16" viewBox="0 0 11 16"><defs><path id="4b3ua" d="M816 1848a.52.52 0 0 0-.2-.37l-8.8-7.47a.71.71 0 0 0-.43-.16.71.71 0 0 0-.43.16l-.95.8a.52.52 0 0 0-.19.37c0 .13.08.27.2.37l7.42 6.3-7.43 6.3a.52.52 0 0 0-.19.37c0 .14.08.27.2.37l.94.8c.11.1.28.16.43.16.15 0 .32-.06.44-.16l8.8-7.47c.11-.1.19-.24.19-.37z"/></defs><g><g transform="translate(-805 -1840)"><use xlink:href="#4b3ua"/><use fill="#454c55" xlink:href="#4b3ua"/></g></g></svg>