<?xml version="1.0" standalone="no"?><!-- Generator: Gravit.io --><svg xmlns="http://www.w3.org/2000/svg" xmlns:xlink="http://www.w3.org/1999/xlink" style="isolation:isolate" viewBox="-1036.323 -698 2548.323 698" width="2548.323" height="698"><g id="logotipo-exemplo"><path d=" M -1036.32 -698 L -801.77 -698 L -811.34 -598.29 L -907.08 -598.29 L -907.08 -503.1 L -811.34 -503.1 L -820.91 -416.99 L -907.08 -416.99 L -907.08 -285.55 L -820.91 -285.55 L -830.49 -199.43 L -1012.39 -199.43 L -1036.32 -698 Z " id="Path" fill="rgb(17,150,125)"/><path d=" M -1012.39 -154.1 L -830.49 -154.1 L -830.49 0 L -1012.39 0 L -1012.39 -154.1 Z " id="Path" fill="rgb(17,150,125)"/><path d=" M -763.39 -501.16 L -666.27 -501.16 L -574.2 -402.49 L -482.13 -501.16 L -385 -501.16 L -525.63 -350.76 L -385 -200.36 L -483.14 -200.36 L -574.2 -298.07 L -666.27 -200.36 L -763.39 -200.36 L -622.76 -350.76 L -763.39 -501.16 Z  M -171.53 -447.52 L -200.87 -447.52 L -200.87 -447.52 Q -242.35 -447.52 -242.35 -420.69 L -242.35 -420.69 L -242.35 -392.91 L -131.06 -392.91 L -131.06 -420.69 L -131.06 -420.69 Q -131.06 -447.52 -171.53 -447.52 L -171.53 -447.52 Z  M -200.87 -254.01 L -171.53 -254.01 L -171.53 -254.01 Q -131.06 -254.01 -131.06 -280.83 L -131.06 -280.83 L -131.06 -299.99 L -33.93 -299.99 L -33.93 -272.21 L -33.93 -272.21 Q -33.93 -238.68 -70.35 -219.52 L -70.35 -219.52 L -70.35 -219.52 Q -103.74 -200.36 -152.3 -200.36 L -152.3 -200.36 L -220.09 -200.36 L -220.09 -200.36 Q -297.99 -200.36 -329.36 -241.55 L -329.36 -241.55 L -329.36 -241.55 Q -339.48 -254.97 -339.48 -272.21 L -339.48 -272.21 L -339.48 -429.31 L -339.48 -429.31 Q -339.48 -461.88 -304.57 -481.52 L -304.57 -481.52 L -304.57 -481.52 Q -269.67 -501.16 -220.09 -501.16 L -220.09 -501.16 L -152.3 -501.16 L -152.3 -501.16 Q -103.74 -501.16 -70.35 -482 L -70.35 -482 L -70.35 -482 Q -33.93 -462.84 -33.93 -429.31 L -33.93 -429.31 L -33.93 -339.27 L -242.35 -339.27 L -242.35 -280.83 L -242.35 -280.83 Q -242.35 -254.01 -200.87 -254.01 L -200.87 -254.01 Z  M 252.39 -200.36 L 252.39 -419.73 L 252.39 -419.73 Q 252.39 -446.56 211.92 -446.56 L 211.92 -446.56 L 193.71 -446.56 L 193.71 -446.56 Q 172.46 -446.56 154.76 -436.02 L 154.76 -436.02 L 154.76 -436.02 Q 137.05 -425.48 137.05 -410.15 L 137.05 -410.15 L 137.05 -200.36 L 39.93 -200.36 L 39.93 -500.2 L 137.05 -500.2 L 137.05 -482 L 137.05 -482 Q 170.44 -500.2 202.81 -500.2 L 202.81 -500.2 L 231.14 -500.2 L 231.14 -500.2 Q 291.85 -500.2 326.25 -473.38 L 326.25 -473.38 L 326.25 -473.38 Q 365.7 -500.2 414.27 -500.2 L 414.27 -500.2 L 442.6 -500.2 L 442.6 -500.2 Q 520.5 -500.2 551.86 -459.01 L 551.86 -459.01 L 551.86 -459.01 Q 561.98 -446.56 561.98 -429.31 L 561.98 -429.31 L 561.98 -200.36 L 463.84 -200.36 L 463.84 -419.73 L 463.84 -419.73 Q 463.84 -446.56 423.37 -446.56 L 423.37 -446.56 L 406.17 -446.56 L 406.17 -446.56 Q 372.79 -446.56 355.59 -427.4 L 355.59 -427.4 L 355.59 -427.4 Q 350.53 -421.65 349.52 -414.94 L 349.52 -414.94 L 349.52 -200.36 L 252.39 -200.36 Z  M 809.86 -446.56 L 776.47 -446.56 L 776.47 -446.56 Q 734.99 -446.56 734.99 -419.73 L 734.99 -419.73 L 734.99 -279.87 L 734.99 -279.87 Q 737.01 -254.01 776.47 -254.01 L 776.47 -254.01 L 809.86 -254.01 L 809.86 -254.01 Q 850.33 -254.01 850.33 -280.83 L 850.33 -280.83 L 850.33 -419.73 L 850.33 -419.73 Q 850.33 -446.56 809.86 -446.56 L 809.86 -446.56 Z  M 829.08 -200.36 L 780.52 -200.36 L 780.52 -200.36 Q 751.18 -200.36 734.99 -211.86 L 734.99 -211.86 L 734.99 -111.27 L 637.86 -111.27 L 637.86 -501.16 L 734.99 -501.16 L 734.99 -492.54 L 734.99 -492.54 Q 757.25 -500.2 784.56 -500.2 L 784.56 -500.2 L 829.08 -500.2 L 829.08 -500.2 Q 877.64 -500.2 911.03 -481.04 L 911.03 -481.04 L 911.03 -481.04 Q 947.45 -461.88 947.45 -429.31 L 947.45 -429.31 L 947.45 -272.21 L 947.45 -272.21 Q 947.45 -238.68 912.55 -219.52 L 912.55 -219.52 L 912.55 -219.52 Q 877.64 -200.36 829.08 -200.36 L 829.08 -200.36 Z  M 1129.56 -200.36 L 1032.44 -200.36 L 1032.44 -584.5 L 1129.56 -584.5 L 1129.56 -200.36 Z  M 1345.06 -254.01 L 1374.4 -254.01 L 1374.4 -254.01 Q 1414.87 -254.01 1414.87 -280.83 L 1414.87 -280.83 L 1414.87 -420.69 L 1414.87 -420.69 Q 1414.87 -447.52 1374.4 -447.52 L 1374.4 -447.52 L 1345.06 -447.52 L 1345.06 -447.52 Q 1303.58 -447.52 1303.58 -420.69 L 1303.58 -420.69 L 1303.58 -280.83 L 1303.58 -280.83 Q 1303.58 -254.01 1345.06 -254.01 L 1345.06 -254.01 Z  M 1206.46 -272.21 L 1206.46 -429.31 L 1206.46 -429.31 Q 1206.46 -461.88 1241.36 -481.52 L 1241.36 -481.52 L 1241.36 -481.52 Q 1276.27 -501.16 1325.84 -501.16 L 1325.84 -501.16 L 1393.63 -501.16 L 1393.63 -501.16 Q 1442.19 -501.16 1475.58 -482 L 1475.58 -482 L 1475.58 -482 Q 1512 -462.84 1512 -429.31 L 1512 -429.31 L 1512 -272.21 L 1512 -272.21 Q 1512 -238.68 1475.58 -219.52 L 1475.58 -219.52 L 1475.58 -219.52 Q 1442.19 -200.36 1393.63 -200.36 L 1393.63 -200.36 L 1325.84 -200.36 L 1325.84 -200.36 Q 1247.94 -200.36 1216.57 -241.55 L 1216.57 -241.55 L 1216.57 -241.55 Q 1206.46 -254.97 1206.46 -272.21 L 1206.46 -272.21 Z " fill-rule="evenodd" id="Compound Path" fill="rgb(46,46,46)"/></g></svg>