<svg aria-hidden="true" style="position: absolute; width: 0; height: 0; overflow: hidden;" version="1.1" xmlns="http://www.w3.org/2000/svg" xmlns:xlink="http://www.w3.org/1999/xlink">
<defs>
<symbol id="icon-play" viewBox="0 0 28 32">
<title>play</title>
<path d="M27.154 17.367l-24.792 14.309c-1.303 0.754-2.362 0.145-2.362-1.364v-28.625c0-1.509 1.059-2.118 2.362-1.364l24.792 14.316c1.303 0.747 1.303 1.973 0 2.728z"></path>
</symbol>
<symbol id="icon-facebook" viewBox="0 0 32 32">
<title>facebook</title>
<path fill="#fff" style="fill: var(--color1)" d="M-0.002 16.003c0-8.832 7.173-16.005 16.005-16.005 8.824 0 15.997 7.173 15.997 16.005 0 8.824-7.173 15.997-15.997 15.997-8.832 0-16.005-7.173-16.005-15.997z"></path>
<path fill="#f1f2f2" style="fill: var(--color2, #f1f2f2)" d="M21.187 6.157v3.172h-1.889c-1.475 0-1.751 0.707-1.751 1.728v2.266h3.517l-0.468 3.556h-3.049v9.108h-3.671v-9.108h-3.057v-3.556h3.057v-2.611c0-3.041 1.859-4.692 4.57-4.692 1.298 0 2.412 0.092 2.742 0.138v0z"></path>
</symbol>
<symbol id="icon-instagram" viewBox="0 0 32 32">
<title>instagram</title>
<path fill="#fff" style="fill: var(--color1)" d="M-0.002 16.003c0-8.832 7.173-16.005 16.005-16.005 8.824 0 15.997 7.173 15.997 16.005 0 8.824-7.173 15.997-15.997 15.997-8.832 0-16.005-7.173-16.005-15.997z"></path>
<path fill="#f1f2f2" style="fill: var(--color2, #f1f2f2)" d="M19.075 16.003c0-1.697-1.382-3.072-3.072-3.072-1.697 0-3.072 1.375-3.072 3.072 0 1.69 1.375 3.072 3.072 3.072 1.69 0 3.072-1.382 3.072-3.072zM20.726 16.003c0 2.611-2.112 4.723-4.723 4.723-2.619 0-4.731-2.112-4.731-4.723 0-2.619 2.112-4.731 4.731-4.731 2.611 0 4.723 2.112 4.723 4.731zM22.024 11.080c0 0.614-0.492 1.106-1.106 1.106-0.607 0-1.098-0.492-1.098-1.106s0.492-1.106 1.098-1.106c0.614 0 1.106 0.492 1.106 1.106zM16.003 8.438c-1.344 0-4.224-0.108-5.437 0.376-0.422 0.169-0.737 0.369-1.060 0.691s-0.53 0.637-0.691 1.060c-0.484 1.213-0.376 4.093-0.376 5.437s-0.108 4.224 0.376 5.43c0.169 0.422 0.369 0.737 0.691 1.060s0.637 0.53 1.060 0.691c1.213 0.484 4.093 0.376 5.437 0.376s4.224 0.108 5.43-0.376c0.422-0.161 0.737-0.369 1.060-0.691s0.53-0.637 0.691-1.060c0.484-1.206 0.376-4.086 0.376-5.43s0.108-4.224-0.376-5.437c-0.161-0.422-0.369-0.737-0.691-1.060s-0.637-0.53-1.060-0.691c-1.206-0.484-4.086-0.376-5.43-0.376zM25.219 16.003c0 1.267 0.008 2.527-0.061 3.802-0.077 1.475-0.407 2.78-1.49 3.863s-2.388 1.413-3.863 1.49c-1.275 0.069-2.534 0.061-3.802 0.061-1.275 0-2.534 0.008-3.809-0.061-1.475-0.077-2.78-0.407-3.863-1.49-1.075-1.083-1.413-2.388-1.482-3.863-0.077-1.275-0.061-2.534-0.061-3.802 0-1.275-0.015-2.534 0.061-3.809 0.069-1.475 0.407-2.78 1.482-3.863 1.083-1.075 2.388-1.413 3.863-1.482 1.275-0.077 2.534-0.061 3.809-0.061 1.267 0 2.527-0.015 3.802 0.061 1.475 0.069 2.78 0.407 3.863 1.482 1.083 1.083 1.413 2.388 1.49 3.863 0.069 1.275 0.061 2.534 0.061 3.809z"></path>
</symbol>
<symbol id="icon-skype" viewBox="0 0 32 32">
<title>skype</title>
<path fill="#fff" style="fill: var(--color1)" d="M-0.002 16.003c0-8.832 7.173-16.005 16.005-16.005 8.824 0 15.997 7.173 15.997 16.005 0 8.824-7.173 15.997-15.997 15.997-8.832 0-16.005-7.173-16.005-15.997z"></path>
<path fill="#f1f2f2" style="fill: var(--color2, #f1f2f2)" d="M20.856 18.007c0-2.089-2.027-2.811-3.725-3.195l-1.252-0.292c-0.914-0.215-1.597-0.369-1.597-1.068 0-0.63 0.676-0.922 1.728-0.922 1.889 0 1.92 1.382 3.087 1.382 0.776 0 1.244-0.614 1.244-1.313 0-1.375-2.289-2.273-4.554-2.273-2.081 0-4.493 0.899-4.493 3.333 0 2.012 1.344 2.734 3.095 3.156l1.751 0.43c1.067 0.261 1.728 0.384 1.728 1.152 0 0.614-0.683 1.083-1.736 1.083-2.22 0-2.342-1.851-3.625-1.851-0.845 0-1.213 0.599-1.213 1.259 0 1.475 2.258 2.68 4.954 2.68 2.258 0 4.608-1.129 4.608-3.571v0.008zM25.219 20.611c0 2.542-2.066 4.608-4.608 4.608-1.060 0-2.027-0.361-2.811-0.96-0.576 0.115-1.19 0.192-1.797 0.192-4.669 0-8.448-3.786-8.448-8.448 0-0.614 0.069-1.229 0.192-1.805-0.599-0.776-0.96-1.751-0.96-2.803 0-2.55 2.058-4.608 4.608-4.608 1.052 0 2.027 0.361 2.803 0.96 0.576-0.123 1.19-0.192 1.805-0.192 4.662 0 8.448 3.779 8.448 8.448 0 0.607-0.077 1.221-0.192 1.797 0.599 0.783 0.96 1.751 0.96 2.811z"></path>
</symbol>
<symbol id="icon-twitter" viewBox="0 0 32 32">
<title>twitter</title>
<path fill="#fff" style="fill: var(--color1)" d="M-0.002 16.003c0-8.832 7.173-16.005 16.005-16.005 8.824 0 15.997 7.173 15.997 16.005 0 8.824-7.173 15.997-15.997 15.997-8.832 0-16.005-7.173-16.005-15.997z"></path>
<path fill="#f1f2f2" style="fill: var(--color2, #f1f2f2)" d="M25.457 10.143c-0.53 0.768-1.19 1.451-1.943 2.004 0.008 0.169 0.008 0.338 0.008 0.507 0 5.123-3.894 11.028-11.028 11.028-2.189 0-4.232-0.637-5.952-1.743 0.315 0.038 0.614 0.046 0.937 0.046 1.812 0 3.479-0.607 4.815-1.651-1.705-0.038-3.133-1.152-3.625-2.688 0.238 0.031 0.484 0.061 0.73 0.061 0.353 0 0.699-0.054 1.021-0.138-1.774-0.361-3.11-1.92-3.11-3.802v-0.046c0.522 0.284 1.121 0.468 1.759 0.492-1.044-0.699-1.728-1.882-1.728-3.226 0-0.722 0.192-1.382 0.522-1.958 1.912 2.35 4.777 3.886 7.995 4.055-0.061-0.292-0.1-0.591-0.1-0.891 0-2.135 1.728-3.871 3.878-3.871 1.114 0 2.127 0.468 2.834 1.221 0.875-0.169 1.713-0.492 2.458-0.937-0.284 0.899-0.899 1.659-1.705 2.135 0.783-0.084 1.536-0.3 2.235-0.599v0z"></path>
</symbol>
<symbol id="icon-whatsapp" viewBox="0 0 32 32">
<title>whatsapp</title>
<path fill="#fff" style="fill: var(--color1)" d="M0.002 16.003c0-8.832 7.165-16.005 15.997-16.005s15.997 7.173 15.997 16.005c0 8.824-7.165 15.997-15.997 15.997s-15.997-7.173-15.997-15.997z"></path>
<path fill="#f1f2f2" style="fill: var(--color2, #f1f2f2)" d="M18.603 16.94c0.207 0 2.158 1.014 2.243 1.16 0.023 0.061 0.023 0.131 0.023 0.184 0 0.3-0.092 0.63-0.2 0.906-0.276 0.676-1.398 1.106-2.081 1.106-0.576 0-1.759-0.499-2.273-0.745-1.72-0.776-2.788-2.112-3.817-3.633-0.461-0.676-0.868-1.498-0.852-2.327v-0.1c0.023-0.791 0.307-1.352 0.883-1.897 0.184-0.169 0.376-0.261 0.63-0.261 0.138 0 0.284 0.038 0.438 0.038 0.33 0 0.384 0.092 0.507 0.407 0.084 0.2 0.699 1.835 0.699 1.951 0 0.461-0.829 0.975-0.829 1.252 0 0.061 0.023 0.123 0.061 0.177 0.261 0.568 0.768 1.213 1.221 1.644 0.553 0.53 1.137 0.883 1.812 1.213 0.084 0.054 0.169 0.084 0.261 0.084 0.361 0 0.96-1.16 1.275-1.16v0zM16.169 23.299c4.147 0 7.534-3.387 7.534-7.534 0-4.155-3.387-7.542-7.534-7.542-4.155 0-7.534 3.387-7.534 7.542 0 1.582 0.499 3.126 1.436 4.416l-0.945 2.796 2.903-0.929c1.221 0.806 2.673 1.252 4.139 1.252v0zM16.169 6.71c4.992 0 9.047 4.055 9.047 9.047s-4.055 9.055-9.047 9.055c-1.528 0-3.034-0.384-4.378-1.129l-5.007 1.605 1.628-4.861c-0.845-1.405-1.29-3.026-1.29-4.669 0-4.992 4.055-9.047 9.047-9.047z"></path>
</symbol>
<symbol id="icon-youtube" viewBox="0 0 32 32">
<title>youtube</title>
<path fill="#fff" style="fill: var(--color1)" d="M-0.002 16.003c0-8.832 7.173-16.005 16.005-16.005 8.824 0 15.997 7.173 15.997 16.005 0 8.824-7.173 15.997-15.997 15.997-8.832 0-16.005-7.173-16.005-15.997z"></path>
<path fill="#f1f2f2" style="fill: var(--color2, #f1f2f2)" d="M13.783 18.783l5.806-2.995-5.806-3.041v6.036zM16.003 8.438c4.523 0 7.519 0.215 7.519 0.215 0.422 0.054 1.344 0.054 2.166 0.914 0 0 0.66 0.653 0.852 2.135 0.223 1.743 0.215 3.479 0.215 3.479v1.636c0 0 0.008 1.743-0.215 3.479-0.192 1.475-0.852 2.135-0.852 2.135-0.822 0.852-1.743 0.852-2.166 0.899 0 0-2.995 0.23-7.519 0.23v0c-5.591-0.046-7.311-0.215-7.311-0.215-0.476-0.084-1.559-0.061-2.373-0.914 0 0-0.66-0.66-0.852-2.135-0.23-1.743-0.215-3.479-0.215-3.479v-1.636c0 0-0.015-1.736 0.215-3.479 0.192-1.482 0.852-2.135 0.852-2.135 0.814-0.86 1.736-0.86 2.158-0.914 0 0 3.003-0.215 7.526-0.215v0 0z"></path>
</symbol>
<symbol id="icon-logotipo-exemplo-green" viewBox="0 0 117 32">
<title>logotipo-exemplo-green</title>
<path fill="#11967d" style="fill: var(--color3, #11967d)" d="M0 0h10.753l-0.439 4.571h-4.389v4.364h4.389l-0.439 3.948h-3.95v6.026h3.95l-0.439 3.948h-8.339l-1.097-22.857z"></path>
<path fill="#11967d" style="fill: var(--color3, #11967d)" d="M1.097 24.935h8.339v7.065h-8.339v-7.065z"></path>
<path fill="#2e2e2e" style="fill: var(--color4, #2e2e2e)" d="M12.513 9.024h4.452l4.221 4.524 4.221-4.524h4.453l-6.447 6.895 6.447 6.895h-4.499l-4.175-4.48-4.221 4.48h-4.453l6.447-6.895-6.447-6.895zM39.647 11.483h-1.345q-1.902 0-1.902 1.23v0 1.274h5.102v-1.274q0-1.23-1.855-1.23v0zM38.302 20.355h1.345q1.855 0 1.855-1.23v0-0.878h4.453v1.274q0 1.537-1.67 2.416v0 0q-1.531 0.878-3.757 0.878v0h-3.108q-3.571 0-5.010-1.888v0 0q-0.464-0.615-0.464-1.406v0-7.202q0-1.493 1.6-2.394v0 0q1.6-0.9 3.873-0.9v0h3.108q2.226 0 3.757 0.878v0 0q1.67 0.878 1.67 2.416v0 4.128h-9.555v2.679q0 1.23 1.902 1.23v0zM59.081 22.814v-10.057q0-1.23-1.855-1.23v0h-0.835q-0.974 0-1.786 0.483v0 0q-0.812 0.483-0.812 1.186v0 9.618h-4.453v-13.746h4.453v0.834q1.531-0.834 3.015-0.834v0h1.299q2.783 0 4.36 1.23v0 0q1.809-1.23 4.035-1.23v0h1.299q3.571 0 5.009 1.888v0 0q0.464 0.571 0.464 1.362v0 10.496h-4.499v-10.057q0-1.23-1.855-1.23v0h-0.789q-1.53 0-2.319 0.878v0 0q-0.232 0.264-0.278 0.571v0 9.837h-4.453zM84.639 11.527h-1.531q-1.902 0-1.902 1.23v0 6.412q0.093 1.186 1.902 1.186v0h1.531q1.855 0 1.855-1.23v0-6.368q0-1.23-1.855-1.23v0zM85.52 22.814h-2.226q-1.345 0-2.087-0.527v0 4.612h-4.453v-17.875h4.453v0.395q1.021-0.351 2.273-0.351v0h2.041q2.226 0 3.757 0.878v0 0q1.67 0.878 1.67 2.372v0 7.202q0 1.537-1.6 2.416v0 0q-1.6 0.878-3.827 0.878v0zM99.296 22.814h-4.453v-17.611h4.453v17.611zM109.175 20.355h1.345q1.855 0 1.855-1.23v0-6.412q0-1.23-1.855-1.23v0h-1.345q-1.902 0-1.902 1.23v0 6.412q0 1.23 1.902 1.23v0zM102.821 19.52v-7.202q0-1.493 1.6-2.394v0 0q1.6-0.9 3.873-0.9v0h3.108q2.226 0 3.757 0.878v0 0q1.67 0.878 1.67 2.416v0 7.202q0 1.537-1.67 2.416v0 0q-1.531 0.878-3.757 0.878v0h-3.108q-3.571 0-5.010-1.888v0 0q-0.463-0.615-0.463-1.406v0z"></path>
</symbol>
<symbol id="icon-logotipo-exemplo-white" viewBox="0 0 117 32">
<title>logotipo-exemplo-white</title>
<path fill="#fff" style="fill: var(--color5, #fff)" d="M0 0h10.753l-0.439 4.571h-4.389v4.364h4.389l-0.439 3.948h-3.95v6.026h3.95l-0.439 3.948h-8.339l-1.097-22.857z"></path>
<path fill="#fff" style="fill: var(--color5, #fff)" d="M1.097 24.935h8.339v7.065h-8.339v-7.065z"></path>
<path fill="#fff" style="fill: var(--color5, #fff)" d="M12.513 9.024h4.452l4.221 4.524 4.221-4.524h4.453l-6.447 6.895 6.447 6.895h-4.499l-4.175-4.48-4.221 4.48h-4.453l6.447-6.895-6.447-6.895zM39.647 11.483h-1.345q-1.902 0-1.902 1.23v0 1.274h5.102v-1.274q0-1.23-1.855-1.23v0zM38.302 20.355h1.345q1.855 0 1.855-1.23v0-0.878h4.453v1.274q0 1.537-1.67 2.416v0 0q-1.531 0.878-3.757 0.878v0h-3.108q-3.571 0-5.010-1.888v0 0q-0.464-0.615-0.464-1.406v0-7.202q0-1.493 1.6-2.394v0 0q1.6-0.9 3.873-0.9v0h3.108q2.226 0 3.757 0.878v0 0q1.67 0.878 1.67 2.416v0 4.128h-9.555v2.679q0 1.23 1.902 1.23v0zM59.081 22.814v-10.057q0-1.23-1.855-1.23v0h-0.835q-0.974 0-1.786 0.483v0 0q-0.812 0.483-0.812 1.186v0 9.618h-4.453v-13.746h4.453v0.834q1.531-0.834 3.015-0.834v0h1.299q2.783 0 4.36 1.23v0 0q1.809-1.23 4.035-1.23v0h1.299q3.571 0 5.009 1.888v0 0q0.464 0.571 0.464 1.362v0 10.496h-4.499v-10.057q0-1.23-1.855-1.23v0h-0.789q-1.53 0-2.319 0.878v0 0q-0.232 0.264-0.278 0.571v0 9.837h-4.453zM84.639 11.527h-1.531q-1.902 0-1.902 1.23v0 6.412q0.093 1.186 1.902 1.186v0h1.531q1.855 0 1.855-1.23v0-6.368q0-1.23-1.855-1.23v0zM85.52 22.814h-2.226q-1.345 0-2.087-0.527v0 4.612h-4.453v-17.875h4.453v0.395q1.021-0.351 2.273-0.351v0h2.041q2.226 0 3.757 0.878v0 0q1.67 0.878 1.67 2.372v0 7.202q0 1.537-1.6 2.416v0 0q-1.6 0.878-3.827 0.878v0zM99.296 22.814h-4.453v-17.611h4.453v17.611zM109.175 20.355h1.345q1.855 0 1.855-1.23v0-6.412q0-1.23-1.855-1.23v0h-1.345q-1.902 0-1.902 1.23v0 6.412q0 1.23 1.902 1.23v0zM102.821 19.52v-7.202q0-1.493 1.6-2.394v0 0q1.6-0.9 3.873-0.9v0h3.108q2.226 0 3.757 0.878v0 0q1.67 0.878 1.67 2.416v0 7.202q0 1.537-1.67 2.416v0 0q-1.531 0.878-3.757 0.878v0h-3.108q-3.571 0-5.010-1.888v0 0q-0.463-0.615-0.463-1.406v0z"></path>
</symbol>
<symbol id="icon-servico-1" viewBox="0 0 32 32">
<title>servico-1</title>
<path fill="#fff" style="fill: var(--color5, #fff)" d="M16 20l13.25-17.5-15.5 7.25z"></path>
<path fill="#fff" style="fill: var(--color5, #fff)" d="M29.25 2.5l-24.5 5 9 2.25 2.25 10.25 0.75-9.25 10 1.75z"></path>
<path fill="#88e3ff" style="fill: var(--color6, #88e3ff)" d="M13.75 9.75l15.5-6.75-12.5 7.75-0.75 9.25z"></path>
<path fill="none" stroke="#444b54" stroke-width="1.5" stroke-miterlimit="10" stroke-linecap="round" stroke-linejoin="round" style="stroke: var(--color7, #444b54)" d="M16 20l0.75-9.25 10 1.75 2.5-10-24.5 5 9 2.25 0.875 2.75"></path>
<path fill="none" stroke="#444b54" stroke-width="1.5" stroke-miterlimit="4" stroke-linecap="round" stroke-linejoin="round" style="stroke: var(--color7, #444b54)" d="M9.75 14.375c-0.2 0.15-0.4 0.3-0.6 0.45"></path>
<path fill="none" stroke="#444b54" stroke-width="1.5" stroke-miterlimit="4" stroke-linecap="round" stroke-linejoin="round" style="stroke: var(--color7, #444b54)" d="M5.85 17.3c-1.95 1.625-2.65 2.95-2.725 6.45-0.175 8.25 16.9 2.575 19 2.125 3.75-0.8 3.625-4.525-1.125-3.65-3.5 0.65-3.95 6.525 3.45 6.525"></path>
<path fill="none" stroke="#444b54" stroke-width="1.5" stroke-miterlimit="4" stroke-linecap="round" stroke-linejoin="round" style="stroke: var(--color7, #444b54)" d="M26.5 28.6c0.25-0.025 0.5-0.075 0.75-0.1"></path>
</symbol>
<symbol id="icon-servico-2" viewBox="0 0 32 32">
<title>servico-2</title>
<path fill="#fff" style="fill: var(--color5, #fff)" d="M3.375 25.5h11.25v3h-11.25v-3z"></path>
<path fill="#fff" style="fill: var(--color5, #fff)" d="M17.375 25.5h11.25v3h-11.25v-3z"></path>
<path fill="#88e3ff" style="fill: var(--color6, #88e3ff)" d="M27.375 25.5l-1.75-11.75h-1.25v-3.75c0-0.7-0.55-1.25-1.25-1.25h-1v-3c0-0.275-0.225-0.5-0.5-0.5h-3.5c-0.275 0-0.5 0.225-0.5 0.5v3h-3.25v-3c0-0.275-0.225-0.5-0.5-0.5h-3.5c-0.275 0-0.5 0.225-0.5 0.5v3h-1c-0.7 0-1.25 0.55-1.25 1.25v3.75h-1.25l-1.75 11.75h1.25v3h8.75v-3h-1.25v-11.75h5.25v11.75h1.25v3h8.75v-3h-1.25z"></path>
<path fill="#fff" style="fill: var(--color5, #fff)" d="M5 23c3.075-0.025 5.625-7.625 6.25-17.75h-0.875c-0.275 0-0.5 0.225-0.5 0.5v3h-1c-0.7 0-1.25 0.55-1.25 1.25v3.75h-1.25l-1.375 9.25z"></path>
<path fill="#146b8e" style="fill: var(--color8, #146b8e)" d="M13.375 13.75h-2.25v7.25c0 1.375-1.125 2.5-2.5 2.5h-0.85c-0.5 0-0.9 0.35-0.975 0.85v0.025c-0.1 0.6 0.375 1.125 0.975 1.125h4.35v3h2.5v-3h-1.25v-11.75z"></path>
<path fill="#146b8e" style="fill: var(--color8, #146b8e)" d="M27.375 25.5l-1.75-11.75h-1.25v-3.75c0-0.7-0.55-1.25-1.25-1.25h-1.5c0.7 0 1.25 0.55 1.25 1.25v3.75h-4.25v4.975c2.525-0.25 4.5-2.375 4.5-4.975h0.3l1.025 6.875c0.225 1.5-0.95 2.875-2.475 2.875h-0.35c-0.55 0-1 0.45-1 1s0.45 1 1 1h4.5v3h2.5v-3h-1.25z"></path>
<path fill="none" stroke="#444b54" stroke-width="1.5" stroke-miterlimit="10" stroke-linecap="round" stroke-linejoin="round" style="stroke: var(--color7, #444b54)" d="M3.375 25.5h11.25v3h-11.25v-3z"></path>
<path fill="none" stroke="#444b54" stroke-width="1.5" stroke-miterlimit="10" stroke-linecap="round" stroke-linejoin="round" style="stroke: var(--color7, #444b54)" d="M13.375 13.75v11.75h-8.75l1.75-11.75h3"></path>
<path fill="none" stroke="#444b54" stroke-width="1.5" stroke-miterlimit="10" stroke-linecap="round" stroke-linejoin="round" style="stroke: var(--color7, #444b54)" d="M9.875 5.75c0-0.275 0.225-0.5 0.5-0.5h3.5c0.275 0 0.5 0.225 0.5 0.5v3"></path>
<path fill="none" stroke="#444b54" stroke-width="1.5" stroke-miterlimit="10" stroke-linecap="round" stroke-linejoin="round" style="stroke: var(--color7, #444b54)" d="M17.625 8.75v-3c0-0.275 0.225-0.5 0.5-0.5h3.5c0.275 0 0.5 0.225 0.5 0.5v3"></path>
<path fill="none" stroke="#444b54" stroke-width="1.5" stroke-miterlimit="10" stroke-linecap="round" stroke-linejoin="round" style="stroke: var(--color7, #444b54)" d="M7.625 11.75v-1.75c0-0.7 0.55-1.25 1.25-1.25h14.25c0.7 0 1.25 0.55 1.25 1.25v1.75"></path>
<path fill="none" stroke="#444b54" stroke-width="1.5" stroke-miterlimit="10" stroke-linecap="round" stroke-linejoin="round" style="stroke: var(--color7, #444b54)" d="M27.375 25.5h-8.75v-11.75h7z"></path>
<path fill="none" stroke="#444b54" stroke-width="1.5" stroke-miterlimit="10" stroke-linecap="round" stroke-linejoin="round" style="stroke: var(--color7, #444b54)" d="M17.375 25.5h11.25v3h-11.25v-3z"></path>
<path fill="#88e3ff" style="fill: var(--color6, #88e3ff)" d="M18.125 16.25h-4.25c-1.375 0-2.5-1.125-2.5-2.5v0c0-1.375 1.125-2.5 2.5-2.5h4.25c1.375 0 2.5 1.125 2.5 2.5v0c0 1.375-1.125 2.5-2.5 2.5z"></path>
<path fill="none" stroke="#444b54" stroke-width="1.5" stroke-miterlimit="10" stroke-linecap="round" stroke-linejoin="round" style="stroke: var(--color7, #444b54)" d="M18.125 16.25h-4.25c-1.375 0-2.5-1.125-2.5-2.5v0c0-1.375 1.125-2.5 2.5-2.5h4.25c1.375 0 2.5 1.125 2.5 2.5v0c0 1.375-1.125 2.5-2.5 2.5z"></path>
</symbol>
<symbol id="icon-servico-3" viewBox="0 0 32 32">
<title>servico-3</title>
<path fill="#ff5576" style="fill: var(--color9, #ff5576)" d="M20.375 4.75h5.125c0.7 0 1.25 0.55 1.25 1.25v21.25c0 0.7-0.55 1.25-1.25 1.25h-17.75c-0.7 0-1.25-0.55-1.25-1.25v-21.25c0-0.7 0.55-1.25 1.25-1.25h2.625z"></path>
<path fill="#fff" style="fill: var(--color5, #fff)" d="M9 6.25h15.25v18.75h-15.25v-18.75z"></path>
<path fill="none" stroke="#444b54" stroke-width="1.5" stroke-miterlimit="10" stroke-linecap="round" stroke-linejoin="round" style="stroke: var(--color7, #444b54)" d="M20.375 4.75h5.125c0.7 0 1.25 0.55 1.25 1.25v21.25c0 0.7-0.55 1.25-1.25 1.25h-17.75c-0.7 0-1.25-0.55-1.25-1.25v-21.25c0-0.7 0.55-1.25 1.25-1.25h2.625"></path>
<path fill="#fff" style="fill: var(--color5, #fff)" d="M18.625 6.375h-4c-0.975 0-1.75-0.775-1.75-1.75v0c0-0.975 0.775-1.75 1.75-1.75h4c0.975 0 1.75 0.775 1.75 1.75v0c0 0.975-0.775 1.75-1.75 1.75z"></path>
<path fill="none" stroke="#444b54" stroke-width="1.5" stroke-miterlimit="10" stroke-linecap="round" stroke-linejoin="round" style="stroke: var(--color7, #444b54)" d="M18.625 6.375h-4c-0.975 0-1.75-0.775-1.75-1.75v0c0-0.975 0.775-1.75 1.75-1.75h4c0.975 0 1.75 0.775 1.75 1.75v0c0 0.975-0.775 1.75-1.75 1.75z"></path>
</symbol>
<symbol id="icon-servico-4" viewBox="0 0 32 32">
<title>servico-4</title>
<path fill="#6e6e8e" style="fill: var(--color10, #6e6e8e)" d="M27.25 27.25h-17.5c-1.375 0-2.5-1.125-2.5-2.5v-17.5c0-1.375 1.125-2.5 2.5-2.5h17.5c1.375 0 2.5 1.125 2.5 2.5v17.5c0 1.375-1.125 2.5-2.5 2.5z"></path>
<path fill="#d4d3dd" style="fill: var(--color11, #d4d3dd)" d="M22.25 27.25h-17.5c-1.375 0-2.5-1.125-2.5-2.5v-17.5c0-1.375 1.125-2.5 2.5-2.5h17.5c1.375 0 2.5 1.125 2.5 2.5v17.5c0 1.375-1.125 2.5-2.5 2.5z"></path>
<path fill="#f2f2f4" style="fill: var(--color12, #f2f2f4)" d="M4.75 24.25v-16.5c0-0.275 0.225-0.5 0.5-0.5h16.5c0.275 0 0.5 0.225 0.5 0.5v16.5c0 0.275-0.225 0.5-0.5 0.5h-16.5c-0.275 0-0.5-0.225-0.5-0.5z"></path>
<path fill="none" stroke="#444b54" stroke-width="1.5" stroke-miterlimit="10" stroke-linecap="round" stroke-linejoin="round" style="stroke: var(--color7, #444b54)" d="M22.25 4.75h5c1.375 0 2.5 1.125 2.5 2.5"></path>
<path fill="none" stroke="#444b54" stroke-width="1.5" stroke-miterlimit="10" stroke-linecap="round" stroke-linejoin="round" style="stroke: var(--color7, #444b54)" d="M29.75 7.25v17.5c0 1.375-1.125 2.5-2.5 2.5v1.25"></path>
<path fill="none" stroke="#444b54" stroke-width="1.5" stroke-miterlimit="10" stroke-linecap="round" stroke-linejoin="round" style="stroke: var(--color7, #444b54)" d="M22.25 27.25v1.25"></path>
<path fill="none" stroke="#444b54" stroke-width="1.5" stroke-miterlimit="10" stroke-linecap="round" stroke-linejoin="round" style="stroke: var(--color7, #444b54)" d="M4.75 27.25v1.25"></path>
<path fill="#88a" style="fill: var(--color13, #88a)" d="M21.5 9.75c0 0.966-0.784 1.75-1.75 1.75s-1.75-0.784-1.75-1.75c0-0.966 0.784-1.75 1.75-1.75s1.75 0.784 1.75 1.75z"></path>
<path fill="#444b54" style="fill: var(--color7, #444b54)" d="M20.5 9.75c0 0.414-0.336 0.75-0.75 0.75s-0.75-0.336-0.75-0.75c0-0.414 0.336-0.75 0.75-0.75s0.75 0.336 0.75 0.75z"></path>
<path fill="none" stroke="#444b54" stroke-width="1.5" stroke-miterlimit="10" stroke-linecap="round" stroke-linejoin="round" style="stroke: var(--color7, #444b54)" d="M26 9.75h-1.25v-2.5c0-1.375-1.125-2.5-2.5-2.5h-17.5c-1.375 0-2.5 1.125-2.5 2.5v17.5c0 1.375 1.125 2.5 2.5 2.5h17.5c1.375 0 2.5-1.125 2.5-2.5v-2.5h1.25"></path>
<path fill="none" stroke="#444b54" stroke-width="1.5" stroke-miterlimit="10" stroke-linecap="round" stroke-linejoin="round" style="stroke: var(--color7, #444b54)" d="M24.75 12.5v7"></path>
<path fill="#fff" style="fill: var(--color5, #fff)" d="M15.268 14.232c0.976 0.976 0.976 2.559 0 3.536s-2.559 0.976-3.535 0c-0.976-0.976-0.976-2.559 0-3.535s2.559-0.976 3.535 0z"></path>
<path fill="none" stroke="#444b54" stroke-width="1.5" stroke-miterlimit="10" stroke-linecap="round" stroke-linejoin="round" style="stroke: var(--color7, #444b54)" d="M15.268 14.232c0.976 0.976 0.976 2.559 0 3.536s-2.559 0.976-3.535 0c-0.976-0.976-0.976-2.559 0-3.535s2.559-0.976 3.535 0z"></path>
<path fill="none" stroke="#444b54" stroke-width="1.5" stroke-miterlimit="10" stroke-linecap="round" stroke-linejoin="round" style="stroke: var(--color7, #444b54)" d="M11.725 14.225l-1.75-1.75"></path>
<path fill="none" stroke="#444b54" stroke-width="1.5" stroke-miterlimit="10" stroke-linecap="round" stroke-linejoin="round" style="stroke: var(--color7, #444b54)" d="M15.275 14.225l1.75-1.75"></path>
<path fill="none" stroke="#444b54" stroke-width="1.5" stroke-miterlimit="10" stroke-linecap="round" stroke-linejoin="round" style="stroke: var(--color7, #444b54)" d="M15.275 17.775l1.75 1.75"></path>
<path fill="none" stroke="#444b54" stroke-width="1.5" stroke-miterlimit="10" stroke-linecap="round" stroke-linejoin="round" style="stroke: var(--color7, #444b54)" d="M11.725 17.775l-1.75 1.75"></path>
</symbol>
<symbol id="icon-apple" viewBox="0 0 22 28">
<title>apple</title>
<path d="M21.766 18.984c-0.391 1.234-1.016 2.547-1.922 3.906-1.344 2.047-2.688 3.063-4.016 3.063-0.531 0-1.25-0.172-2.188-0.5-0.922-0.344-1.719-0.5-2.359-0.5-0.625 0-1.375 0.172-2.219 0.516-0.859 0.359-1.547 0.531-2.063 0.531-1.609 0-3.156-1.359-4.703-4.047-1.516-2.688-2.297-5.297-2.297-7.859 0-2.391 0.594-4.328 1.766-5.844 1.172-1.5 2.641-2.25 4.438-2.25 0.766 0 1.672 0.156 2.766 0.469 1.078 0.313 1.797 0.469 2.156 0.469 0.453 0 1.203-0.172 2.234-0.531 1.031-0.344 1.937-0.531 2.703-0.531 1.25 0 2.359 0.344 3.328 1.016 0.547 0.375 1.094 0.906 1.625 1.563-0.812 0.688-1.406 1.297-1.781 1.844-0.672 0.969-1.016 2.047-1.016 3.234 0 1.281 0.359 2.453 1.078 3.484s1.547 1.687 2.469 1.969zM15.891 0.656c0 0.641-0.156 1.359-0.453 2.125-0.313 0.781-0.797 1.5-1.453 2.156-0.562 0.562-1.125 0.938-1.687 1.125-0.359 0.109-0.891 0.203-1.625 0.266 0.031-1.547 0.438-2.891 1.219-4.016s2.094-1.891 3.906-2.312c0.031 0.141 0.063 0.25 0.078 0.344 0 0.109 0.016 0.203 0.016 0.313z"></path>
</symbol>
<symbol id="icon-arrow-outline-down" viewBox="0 0 20 20">
<title>arrow-outline-down</title>
<path d="M10 20c-5.523 0-10-4.477-10-10s4.477-10 10-10v0c5.523 0 10 4.477 10 10s-4.477 10-10 10v0zM10 18c4.418 0 8-3.582 8-8s-3.582-8-8-8v0c-4.418 0-8 3.582-8 8s3.582 8 8 8v0zM8 10v-5h4v5h3l-5 5-5-5h3z"></path>
</symbol>
</defs>
</svg>
